Coordinates
version=1
nRows=8
nColumns=46
inDegrees=yes

Units are S.I. units (second, meters, Newtons, ...)
Angles are in degrees.

endheader
time	pelvis_tilt	pelvis_list	pelvis_rotation	pelvis_tx	pelvis_ty	pelvis_tz	bb_angle	bb_tx	bb_ty	bb_tz	hip_flexion_r	hip_adduction_r	hip_rotation_r	knee_angle_r	knee_angle_r_beta	ankle_angle_r	subtalar_angle_r	mtp_angle_r	crank_angle_r	hip_flexion_l	hip_adduction_l	hip_rotation_l	knee_angle_l	knee_angle_l_beta	ankle_angle_l	subtalar_angle_l	mtp_angle_l	crank_angle_l	lumbar_extension	lumbar_bending	lumbar_rotation	arm_flex_r	arm_add_r	arm_rot_r	elbow_flex_r	pro_sup_r	wrist_flex_r	wrist_dev_r	arm_flex_l	arm_add_l	arm_rot_l	elbow_flex_l	pro_sup_l	wrist_flex_l	wrist_dev_l
      2.50000000	    -21.98019305	      3.37324839	      1.93914880	      0.14841716	      1.06534766	     -0.23024430	      0.00000000	      0.50000000	      0.00000000	      0.25000000	     61.62277869	     -7.49503652	      2.61344933	     43.93607630	      0.76682919	     -7.75643640	     -8.27319145	      0.00000000	      0.00000000	     69.54388295	     -1.97007994	     -1.46316867	     96.56176803	      1.68532078	    -11.41150992	    -16.56716235	      0.00000000	      0.00000000	    -56.32691437	     -0.07228732	     -4.28023440	     88.59628729	    -17.31273516	     32.98558352	     64.11478798	     42.23514241	      0.00000000	      0.00000000	     86.01335552	    -14.00652612	     20.23787490	     60.25727594	     45.27230641	      0.00000000	      0.00000000
      2.50500000	    -21.99766899	      3.72195379	      1.88664106	      0.15018911	      1.06598584	     -0.23001321	      0.00000000	      0.50000000	      0.00000000	      0.25000000	     60.69255368	     -7.95783988	      2.25553302	     42.38950552	      0.73983644	     -9.52124016	     -7.12520521	      0.00000000	      0.00000000	     70.35349953	     -1.83586754	     -1.63846500	     97.83189140	      1.70748862	    -11.13072654	    -16.60537994	      0.00000000	      0.00000000	    -56.33058094	     -0.35407643	     -4.53095592	     88.49539271	    -17.37410714	     33.08863777	     64.11006065	     42.25362616	      0.00000000	      0.00000000	     85.92075836	    -13.96136348	     20.35114762	     60.25474516	     45.29149176	      0.00000000	      0.00000000
      2.51000000	    -21.88519758	      3.84601897	      1.76774731	      0.15199915	      1.06695561	     -0.22975537	      0.00000000	      0.50000000	      0.00000000	      0.25000000	     59.48738090	     -8.20844180	      1.78202391	     40.65219197	      0.70951460	    -11.47988817	     -6.18774748	      0.00000000	      0.00000000	     71.07181572	     -1.88182342	     -1.58998876	     99.08473792	      1.72935492	    -10.88335645	    -16.33892028	      0.00000000	      0.00000000	    -56.46700764	     -0.40626109	     -4.39829980	     88.50015942	    -17.42714989	     33.32317169	     64.07439490	     42.29262119	      0.00000000	      0.00000000	     85.77449849	    -13.91328110	     20.47467391	     60.20807024	     45.31665340	      0.00000000	      0.00000000
      2.51500000	    -21.67530191	      4.03634366	      1.73624389	      0.15354535	      1.06797681	     -0.22958232	      0.00000000	      0.50000000	      0.00000000	      0.25000000	     58.23051918	     -8.58169993	      1.29289361	     39.00907481	      0.68083679	    -13.45387519	     -5.24452256	      0.00000000	      0.00000000	     71.70830710	     -1.78394452	     -1.56688358	    100.29790225	      1.75052863	    -10.52724871	    -16.12850280	      0.00000000	      0.00000000	    -56.70297495	     -0.49743673	     -4.41718459	     88.51743060	    -17.51783316	     33.50811062	     63.98484900	     42.32043126	      0.00000000	      0.00000000	     85.76445880	    -13.70934507	     20.53108289	     60.07211076	     45.32105850	      0.00000000	      0.00000000
      2.52000000	    -21.61850761	      4.44645637	      1.62441446	      0.15509305	      1.06869817	     -0.22920592	      0.00000000	      0.50000000	      0.00000000	      0.25000000	     57.23837562	     -9.03773448	      1.00509870	     37.49537263	      0.65441771	    -15.30440400	     -4.05911330	      0.00000000	      0.00000000	     72.45253811	     -1.65488886	     -1.79053869	    101.42775326	      1.77024825	    -10.13001642	    -16.08589955	      0.00000000	      0.00000000	    -56.77054759	     -0.82623539	     -4.62582017	     88.43705186	    -17.52250199	     33.60886260	     63.92157842	     42.33138271	      0.00000000	      0.00000000	     85.75227847	    -13.53410293	     20.55331593	     59.96758431	     45.31582794	      0.00000000	      0.00000000
      2.52500000	    -21.57307674	      4.74093828	      1.44624840	      0.15690367	      1.06928178	     -0.22915858	      0.00000000	      0.50000000	      0.00000000	      0.25000000	     56.21390019	     -9.38673438	      0.67208398	     35.97069939	      0.62780714	    -17.14412041	     -2.86034403	      0.00000000	      0.00000000	     73.23304817	     -1.58808063	     -1.90969407	    102.60255251	      1.79075236	     -9.73509564	    -16.00698472	      0.00000000	      0.00000000	    -56.80023951	     -1.11392932	     -4.78404336	     88.36320230	    -17.51304834	     33.71353235	     63.82232447	     42.33618436	      0.00000000	      0.00000000	     85.59481695	    -13.35449033	     20.55285364	     59.83263375	     45.30447701	      0.00000000	      0.00000000
      2.53000000	    -21.45265874	      4.99985808	      1.33348095	      0.15843422	      1.06992733	     -0.22897368	      0.00000000	      0.50000000	      0.00000000	      0.25000000	     55.04508576	     -9.71243005	      0.38627345	     34.33212131	      0.59920856	    -19.02854667	     -1.76930975	      0.00000000	      0.00000000	     73.97439348	     -1.53330922	     -1.99337116	    103.71780250	      1.81021715	     -9.23988140	    -15.82578783	      0.00000000	      0.00000000	    -56.86360231	     -1.27918281	     -4.79623778	     88.32810424	    -17.46751034	     33.87320839	     63.62435835	     42.33370023	      0.00000000	      0.00000000	     85.47292372	    -13.15283532	     20.46147265	     59.66765383	     45.28242653	      0.00000000	      0.00000000
      2.53500000	    -21.34801515	      5.30364627	      1.22488056	      0.15993796	      1.07028244	     -0.22895424	      0.00000000	      0.50000000	      0.00000000	      0.25000000	     53.99203210	    -10.12002368	      0.06422327	     32.92558775	      0.57465991	    -20.72737892	     -0.67804408	      0.00000000	      0.00000000	     74.76035444	     -1.44037295	     -2.12741173	    104.84743650	      1.82993298	     -8.71331180	    -15.62643955	      0.00000000	      0.00000000	    -56.92318399	     -1.51679868	     -4.95980559	     88.27820263	    -17.42703289	     34.02987246	     63.39817686	     42.32347590	      0.00000000	      0.00000000	     85.29976358	    -12.94532763	     20.37479857	     59.53341357	     45.26481944	      0.00000000	      0.00000000
